<mxfile host="app.diagrams.net" modified="2023-05-30T22:00:34.768Z" agent="Mozilla/5.0 (Macintosh; Intel Mac OS X 10_15_7) AppleWebKit/537.36 (KHTML, like Gecko) Chrome/112.0.0.0 Safari/537.36" etag="sNehGJfdIsULJMPM0l72" version="21.3.5" type="github">
  <diagram name="Page-1" id="QRiO2OGyPmoOTuANHA-K">
    <mxGraphModel dx="1026" dy="591" grid="1" gridSize="10" guides="1" tooltips="1" connect="1" arrows="1" fold="1" page="1" pageScale="1" pageWidth="850" pageHeight="1100" math="0" shadow="0">
      <root>
        <mxCell id="0" />
        <mxCell id="1" parent="0" />
      </root>
    </mxGraphModel>
  </diagram>
</mxfile>
